<?xml version="1.0" encoding="UTF-8" standalone="no"?>
<!-- Created with Inkscape (http://www.inkscape.org/) -->

<svg
   version="1.1"
   id="svg2"
   width="793.70135"
   height="1122.52"
   viewBox="0 0 793.70135 1122.52"
   sodipodi:docname="temple n fork n spoon_II.ai"
   xmlns:inkscape="http://www.inkscape.org/namespaces/inkscape"
   xmlns:sodipodi="http://sodipodi.sourceforge.net/DTD/sodipodi-0.dtd"
   xmlns="http://www.w3.org/2000/svg"
   xmlns:svg="http://www.w3.org/2000/svg">
  <defs
     id="defs6">
    <clipPath
       clipPathUnits="userSpaceOnUse"
       id="clipPath16">
      <path
         d="M 0,841.89 H 595.276 V 0 H 0 Z"
         id="path14" />
    </clipPath>
  </defs>
  <sodipodi:namedview
     id="namedview4"
     pagecolor="#ffffff"
     bordercolor="#000000"
     borderopacity="0.25"
     inkscape:showpageshadow="2"
     inkscape:pageopacity="0.0"
     inkscape:pagecheckerboard="0"
     inkscape:deskcolor="#d1d1d1" />
  <g
     id="g8"
     inkscape:groupmode="layer"
     inkscape:label="temple n fork n spoon_II"
     transform="matrix(1.3333333,0,0,-1.3333333,0,1122.52)">
    <g
       id="g10">
      <g
         id="g12"
         clip-path="url(#clipPath16)">
        <g
           id="g18"
           transform="translate(268.6763,441.9629)">
          <path
             d="M 0,0 V -18.385 H -1 V 1 H 1.802 V 6.01 H 2.123 C 1.746,6.35 1.472,6.809 1.356,7.349 0.835,9.788 0.373,12.98 -0.036,15.797 c -0.187,1.288 -0.359,2.476 -0.515,3.436 -0.361,2.215 1.022,4.765 2.845,6.612 v 8.982 h -14.442 v -43.69 h -3.531 v 43.69 H -34.128 V 6.052 L 19.617,-46.971 V 0 Z"
             style="fill:#ffffff;fill-opacity:1;fill-rule:nonzero;stroke:none"
             id="path20" />
        </g>
        <g
           id="g22"
           transform="translate(208.4023,476.79)">
          <path
             d="M 0,0 V -2.981 L 22.625,-25.302 V 0 Z"
             style="fill:#ffffff;fill-opacity:1;fill-rule:nonzero;stroke:none"
             id="path24" />
        </g>
        <g
           id="g26"
           transform="translate(342.2783,476.79)">
          <path
             d="M 0,0 V -43.69 H -3.53 V 0 h -14.444 v -8.982 c 1.825,-1.848 3.206,-4.397 2.846,-6.612 -0.156,-0.962 -0.329,-2.154 -0.517,-3.445 -0.408,-2.814 -0.871,-6.003 -1.39,-8.439 -0.115,-0.541 -0.39,-0.999 -0.767,-1.339 h 0.322 v -5.01 h 2.801 v -19.385 h -1 v 18.385 h -19.617 v -47.652 l 53.745,52.008 0,30.471 z"
             style="fill:#ffffff;fill-opacity:1;fill-rule:nonzero;stroke:none"
             id="path28" />
        </g>
        <g
           id="g30"
           transform="translate(386.873,476.79)">
          <path
             d="M 0,0 H -22.625 V -27.064 L 1.646,-3.578 0,-3.742 Z"
             style="fill:#ffffff;fill-opacity:1;fill-rule:nonzero;stroke:none"
             id="path32" />
        </g>
        <g
           id="g34"
           transform="translate(364.248,449.7256)">
          <path
             d="m 0,0 v 27.064 h 22.625 v -3.742 l 1.646,0.164 z m -57.266,-55.415 v 47.652 h 19.618 v -18.385 h 1 v 19.385 h -2.802 v 5.01 h -0.321 c 0.376,0.34 0.651,0.799 0.766,1.339 0.52,2.436 0.983,5.626 1.391,8.439 0.187,1.292 0.36,2.483 0.516,3.446 0.361,2.214 -1.021,4.764 -2.845,6.612 v 8.981 H -25.5 v -43.689 h 3.53 V 27.064 H -3.521 V -3.407 Z M -129.7,-1.71 v 28.774 h 18.45 v -43.689 h 3.53 v 43.689 h 14.443 v -8.982 c -1.824,-1.847 -3.206,-4.396 -2.846,-6.611 0.156,-0.96 0.329,-2.149 0.515,-3.436 0.409,-2.817 0.872,-6.01 1.393,-8.449 0.115,-0.54 0.389,-0.999 0.766,-1.339 h -0.321 v -5.01 h -2.802 v -19.385 h 1 v 18.385 h 19.617 v -46.97 z m -26.146,25.793 v 2.981 h 22.626 V 1.762 Z M 51.974,70.079 51.591,71.977 51.007,70.13 C 50.594,68.824 49.582,68.056 49.192,67.8 45.51,68.75 -6.053,82.058 -26.206,88.037 v 10.622 h 9.458 l 7.567,8.977 h -9.131 v 9.069 c 7.688,0 13.492,-0.001 16.263,-0.003 7.751,-0.003 9.592,-0.019 9.769,-0.032 0.242,-0.022 0.474,0.065 0.651,0.244 0.624,0.63 0.511,2.629 0.423,3.544 1.241,0.609 2.166,1.731 1.621,4.428 l -0.384,1.897 -0.583,-1.845 c -0.398,-1.26 -1.351,-2.019 -1.768,-2.301 -3.603,1.657 -45.485,20.951 -60.231,28.82 l 16.217,6.68 c 7.664,-0.003 9.494,-0.019 9.669,-0.032 0.256,-0.021 0.467,0.063 0.641,0.239 0.579,0.581 0.538,2.402 0.459,3.459 1.335,0.588 2.384,1.684 1.812,4.518 l -0.384,1.897 -0.583,-1.845 c -0.391,-1.241 -1.324,-1.996 -1.75,-2.288 -2.926,1.613 -29.773,16.441 -37.019,21.519 1.56,4.241 -0.302,6.796 -1.472,8.352 0.204,1.831 -1.199,3.579 -1.262,3.655 l -0.387,0.476 -0.388,-0.476 c -0.062,-0.076 -1.465,-1.824 -1.262,-3.655 -1.169,-1.556 -3.032,-4.111 -1.471,-8.352 -7.246,-5.078 -34.095,-19.906 -37.019,-21.519 -0.427,0.292 -1.358,1.047 -1.75,2.288 l -0.583,1.845 -0.384,-1.897 c -0.573,-2.834 0.477,-3.93 1.812,-4.518 -0.079,-1.057 -0.121,-2.877 0.459,-3.459 0.156,-0.158 0.356,-0.242 0.566,-0.242 0.024,0 0.047,0.001 0.071,0.003 0.179,0.013 2.009,0.029 9.672,0.032 l 16.218,-6.68 c -14.747,-7.869 -56.629,-27.163 -60.231,-28.82 -0.417,0.282 -1.371,1.042 -1.769,2.301 l -0.583,1.845 -0.384,-1.897 c -0.545,-2.697 0.38,-3.819 1.621,-4.428 -0.088,-0.915 -0.201,-2.914 0.423,-3.544 0.159,-0.162 0.362,-0.247 0.576,-0.247 0.024,0 0.049,0 0.073,0.003 0.179,0.013 2.02,0.029 9.771,0.032 2.772,0.002 8.576,0.003 16.263,0.003 v -9.069 h -9.131 l 7.567,-8.977 h 9.459 V 88.037 c -20.157,-5.98 -71.729,-19.29 -75.401,-20.237 -0.388,0.253 -1.396,1.013 -1.812,2.33 l -0.584,1.847 -0.383,-1.898 c -0.544,-2.695 0.38,-3.818 1.621,-4.428 -0.088,-0.914 -0.201,-2.914 0.423,-3.545 0.159,-0.161 0.362,-0.247 0.577,-0.247 0.024,0 0.048,10e-4 0.073,0.004 0.179,0.012 2.02,0.029 9.771,0.032 1.914,10e-4 6.608,10e-4 13.357,0.002 V 23.674 l 2.801,-0.279 23.351,-23.037 v -16.983 h 3.52 v 13.51 l 53.745,-53.023 v -7.603 h 17.689 0.5 0.5 v 7.63 l 0.348,-0.36 53.397,51.673 V -16.625 H 0 v 15.233 l 25.874,25.038 0.277,0.028 v 38.223 c 6.749,-10e-4 11.444,-10e-4 13.358,-0.002 7.751,-0.003 9.592,-0.02 9.768,-0.032 0.241,-0.022 0.474,0.065 0.652,0.243 0.624,0.631 0.511,2.631 0.424,3.545 1.241,0.61 2.165,1.733 1.621,4.428"
             style="fill:#ffffff;fill-opacity:1;fill-rule:nonzero;stroke:none"
             id="path36" />
        </g>
        <g
           id="g38"
           transform="translate(280.8311,446.9663)">
          <path
             d="m 0,0 -0.202,0.007 c -0.134,0.001 -0.396,0.002 -0.564,0.242 -0.197,0.282 -0.144,0.431 0.272,1.595 0.311,0.868 0.83,2.322 1.661,4.868 0.596,1.829 0.999,3.506 1.231,5.128 0.352,2.461 0.132,3.625 -0.902,4.792 l 0.748,0.663 C 3.495,15.884 3.784,14.472 3.388,11.699 3.147,10.018 2.732,8.286 2.117,6.402 1.306,3.914 0.79,2.463 0.475,1.582 1.01,1.839 1.696,1.966 2.44,1.567 2.781,1.384 3.158,1.373 3.5,1.53 c 0.387,0.18 0.667,0.553 0.768,1.025 0.513,2.406 0.974,5.581 1.38,8.383 0.187,1.293 0.361,2.487 0.518,3.452 0.381,2.347 -1.629,5.214 -3.812,6.833 -1.05,0.778 -1.437,2.288 -0.88,3.436 0.322,0.662 -0.069,1.337 -1.008,2.509 -0.216,0.268 -0.474,0.7 -0.481,1.232 -0.007,0.59 -0.315,1.093 -0.914,1.496 -0.391,0.262 -0.675,0.682 -0.8,1.181 -0.401,1.621 -0.826,1.741 -0.874,1.749 -0.164,0.028 -0.432,-0.227 -0.557,-0.414 -0.23,-0.303 -0.821,-1.22 -0.789,-1.815 l 0.017,-0.333 -0.299,-0.144 c -0.483,-0.234 -1.295,-0.767 -1.307,-1.72 -0.007,-0.532 -0.265,-0.963 -0.481,-1.233 -0.939,-1.171 -1.33,-1.846 -1.008,-2.508 0.557,-1.148 0.17,-2.658 -0.88,-3.436 -2.183,-1.619 -4.194,-4.486 -3.812,-6.833 0.157,-0.965 0.33,-2.159 0.518,-3.452 0.406,-2.802 0.867,-5.977 1.38,-8.383 0.101,-0.472 0.381,-0.845 0.767,-1.025 0.343,-0.158 0.72,-0.145 1.06,0.037 0.743,0.399 1.43,0.272 1.966,0.015 -0.315,0.881 -0.831,2.332 -1.643,4.82 -0.615,1.885 -1.03,3.617 -1.27,5.297 -0.396,2.773 -0.108,4.185 1.144,5.596 l 0.748,-0.663 C -8.083,15.465 -8.303,14.301 -7.951,11.84 -7.719,10.218 -7.317,8.541 -6.72,6.712 -5.889,4.164 -5.369,2.71 -5.059,1.842 -4.643,0.68 -4.59,0.53 -4.787,0.249 -4.956,0.009 -5.217,0.008 -5.315,0.007 L -5.51,0.006 -5.703,0.136 c -0.741,0.672 -1.286,0.836 -1.819,0.55 -0.616,-0.329 -1.329,-0.353 -1.953,-0.062 -0.674,0.313 -1.157,0.94 -1.323,1.722 -0.521,2.438 -0.984,5.631 -1.393,8.448 -0.186,1.288 -0.359,2.476 -0.515,3.436 -0.446,2.741 1.777,5.997 4.203,7.796 0.666,0.494 0.924,1.479 0.576,2.197 -0.605,1.245 0.153,2.354 1.128,3.57 0.166,0.207 0.258,0.427 0.261,0.62 0.013,1.003 0.592,1.888 1.601,2.465 0.113,0.981 0.869,1.991 0.963,2.115 0.046,0.072 0.661,0.972 1.538,0.819 0.745,-0.127 1.293,-0.942 1.678,-2.494 0.064,-0.258 0.201,-0.468 0.386,-0.592 0.864,-0.58 1.346,-1.402 1.357,-2.313 C 0.987,28.22 1.08,28 1.246,27.794 2.221,26.577 2.979,25.468 2.374,24.223 2.025,23.505 2.284,22.52 2.95,22.026 5.376,20.227 7.599,16.971 7.153,14.23 6.997,13.27 6.824,12.082 6.638,10.794 6.229,7.977 5.766,4.784 5.245,2.346 5.079,1.564 4.596,0.937 3.922,0.624 3.298,0.333 2.586,0.355 1.969,0.686 1.436,0.971 0.89,0.807 0.15,0.136 Z"
             style="fill:#231f20;fill-opacity:1;fill-rule:nonzero;stroke:none"
             id="path40" />
        </g>
        <g
           id="g42"
           transform="translate(277.9932,451.2686)">
          <path
             d="M 0,0 C -0.774,0 -1.543,0.229 -2.219,0.687 -3.261,1.392 -4.28,2.37 -5.248,3.593 l 0.784,0.62 C -3.56,3.071 -2.616,2.163 -1.659,1.515 -0.668,0.844 0.592,0.831 1.629,1.478 2.668,2.127 3.664,3.047 4.586,4.213 L 5.371,3.593 C 4.376,2.336 3.295,1.339 2.158,0.629 1.485,0.209 0.74,0 0,0"
             style="fill:#231f20;fill-opacity:1;fill-rule:nonzero;stroke:none"
             id="path44" />
        </g>
        <path
           d="m 271.478,443.826 h 13.566 v 3.146 h -13.566 z m 14.566,-1 h -15.566 v 5.146 h 15.566 z"
           style="fill:#231f20;fill-opacity:1;fill-rule:nonzero;stroke:none"
           id="path46" />
        <g
           id="g48"
           transform="translate(278.0332,466.6089)">
          <path
             d="m 0,0 c -0.011,0 -0.021,0 -0.031,0 -0.812,0.01 -2.018,0.394 -3.187,2.153 l -1.551,0.93 0.515,0.858 1.748,-1.05 0.063,-0.098 C -1.692,1.63 -0.854,1.01 -0.02,1 0.845,0.998 1.698,1.609 2.5,2.79 L 2.658,2.939 4.346,3.942 4.857,3.083 3.263,2.135 C 2.038,0.379 0.821,0 0,0"
             style="fill:#231f20;fill-opacity:1;fill-rule:nonzero;stroke:none"
             id="path50" />
        </g>
        <g
           id="g52"
           transform="translate(278.5928,469.5977)">
          <path
             d="m 0,0 c -0.128,0 -0.261,0.009 -0.4,0.028 -1.982,0.274 -2.673,1.654 -2.702,1.713 l 0.898,0.441 c 0.02,-0.039 0.509,-0.965 1.941,-1.163 1.28,-0.178 1.733,0.975 1.78,1.106 L 2.461,1.795 C 2.234,1.14 1.443,0 0,0"
             style="fill:#231f20;fill-opacity:1;fill-rule:nonzero;stroke:none"
             id="path54" />
        </g>
        <g
           id="g56"
           transform="translate(276.8057,474.249)">
          <path
             d="M 0,0 -0.026,-0.201 C -0.005,-0.154 0.012,-0.085 0,0 m -0.42,-0.092 c 0.013,-0.03 0.032,-0.061 0.06,-0.093 0.083,-0.093 0.195,-0.111 0.208,-0.109 l -0.02,0.067 z m 0.656,-0.747 -0.339,0.044 c -0.228,0.029 -0.77,0.146 -0.877,0.601 -0.04,0.169 -0.041,0.498 0.405,0.797 l 0.174,0.074 C 0.079,0.781 0.321,0.571 0.422,0.437 0.695,0.071 0.474,-0.402 0.399,-0.539 Z"
             style="fill:#231f20;fill-opacity:1;fill-rule:nonzero;stroke:none"
             id="path58" />
        </g>
        <g
           id="g60"
           transform="translate(279.7212,474.502)">
          <path
             d="M 0,0 -0.027,-0.203 C -0.005,-0.155 0.012,-0.085 0,0 m -0.42,-0.092 c 0.013,-0.03 0.032,-0.062 0.06,-0.093 0.081,-0.092 0.17,-0.098 0.208,-0.11 l -0.02,0.067 z m 0.656,-0.747 -0.339,0.043 c -0.228,0.029 -0.77,0.147 -0.876,0.601 -0.041,0.17 -0.041,0.499 0.405,0.798 l 0.173,0.073 C 0.083,0.779 0.321,0.57 0.422,0.437 0.695,0.07 0.474,-0.403 0.399,-0.54 Z"
             style="fill:#231f20;fill-opacity:1;fill-rule:nonzero;stroke:none"
             id="path62" />
        </g>
        <g
           id="g64"
           transform="translate(319.9971,446.9663)">
          <path
             d="m 0,0 -0.202,0.007 c -0.133,0.001 -0.395,0.002 -0.564,0.242 -0.196,0.281 -0.143,0.431 0.273,1.593 0.309,0.868 0.829,2.322 1.66,4.87 0.598,1.831 1,3.508 1.231,5.128 0.352,2.46 0.133,3.624 -0.901,4.792 l 0.748,0.663 C 3.496,15.883 3.785,14.471 3.389,11.699 3.149,10.021 2.733,8.288 2.118,6.402 1.307,3.914 0.79,2.463 0.476,1.582 1.014,1.839 1.699,1.964 2.441,1.567 2.782,1.384 3.16,1.373 3.501,1.53 c 0.387,0.18 0.666,0.553 0.767,1.025 0.513,2.403 0.973,5.575 1.379,8.373 0.189,1.298 0.363,2.495 0.52,3.462 0.381,2.347 -1.629,5.214 -3.813,6.833 -1.05,0.779 -1.436,2.288 -0.879,3.436 0.321,0.662 -0.07,1.337 -1.009,2.509 -0.215,0.267 -0.473,0.699 -0.481,1.231 -0.011,0.954 -0.823,1.487 -1.306,1.721 l -0.299,0.144 0.017,0.332 c 0.032,0.596 -0.56,1.513 -0.769,1.788 -0.147,0.215 -0.419,0.468 -0.578,0.442 -0.047,-0.008 -0.473,-0.128 -0.874,-1.748 -0.123,-0.499 -0.407,-0.919 -0.8,-1.182 -0.599,-0.403 -0.906,-0.906 -0.914,-1.497 -0.006,-0.531 -0.265,-0.963 -0.481,-1.232 -0.939,-1.171 -1.33,-1.846 -1.007,-2.508 0.556,-1.148 0.17,-2.658 -0.881,-3.436 -2.183,-1.619 -4.193,-4.486 -3.812,-6.833 0.158,-0.968 0.332,-2.168 0.521,-3.468 0.405,-2.797 0.865,-5.966 1.378,-8.367 0.1,-0.472 0.381,-0.845 0.767,-1.025 0.342,-0.158 0.719,-0.146 1.061,0.037 0.741,0.397 1.428,0.272 1.965,0.015 -0.315,0.881 -0.831,2.332 -1.643,4.82 -0.615,1.886 -1.031,3.619 -1.27,5.297 -0.397,2.772 -0.108,4.184 1.143,5.596 l 0.748,-0.663 C -8.083,15.464 -8.302,14.3 -7.95,11.84 -7.719,10.22 -7.316,8.543 -6.719,6.712 -5.888,4.164 -5.368,2.71 -5.059,1.842 -4.643,0.68 -4.59,0.53 -4.786,0.249 -4.955,0.009 -5.217,0.008 -5.314,0.007 L -5.509,0.006 -5.702,0.136 C -6.444,0.809 -6.99,0.971 -7.521,0.686 -8.138,0.357 -8.849,0.333 -9.474,0.624 c -0.674,0.313 -1.157,0.94 -1.325,1.722 -0.518,2.434 -0.981,5.621 -1.389,8.432 -0.187,1.294 -0.361,2.488 -0.517,3.452 -0.446,2.741 1.776,5.997 4.202,7.796 0.666,0.494 0.925,1.479 0.576,2.197 -0.604,1.246 0.154,2.354 1.129,3.57 0.165,0.207 0.258,0.426 0.26,0.619 0.013,0.913 0.494,1.734 1.356,2.314 0.186,0.124 0.324,0.335 0.387,0.592 0.385,1.552 0.934,2.367 1.678,2.494 0.877,0.154 1.492,-0.747 1.559,-0.85 0.076,-0.096 0.829,-1.103 0.942,-2.084 C 0.394,30.3 0.973,29.415 0.985,28.413 0.988,28.22 1.081,28 1.246,27.794 2.221,26.577 2.979,25.468 2.375,24.223 2.026,23.505 2.284,22.52 2.95,22.026 5.377,20.227 7.6,16.971 7.153,14.23 6.997,13.268 6.824,12.076 6.637,10.785 6.229,7.971 5.766,4.782 5.246,2.346 5.079,1.564 4.597,0.937 3.922,0.624 3.299,0.333 2.587,0.355 1.97,0.686 1.437,0.97 0.894,0.809 0.15,0.136 Z"
             style="fill:#231f20;fill-opacity:1;fill-rule:nonzero;stroke:none"
             id="path66" />
        </g>
        <g
           id="g68"
           transform="translate(317.2822,451.2686)">
          <path
             d="M 0,0 C -0.74,0 -1.484,0.209 -2.158,0.629 -3.296,1.34 -4.377,2.337 -5.37,3.593 l 0.783,0.62 C -3.664,3.048 -2.669,2.127 -1.629,1.478 -0.593,0.832 0.668,0.845 1.659,1.515 2.616,2.163 3.56,3.071 4.465,4.214 L 5.248,3.593 C 4.28,2.37 3.262,1.392 2.22,0.687 1.544,0.229 0.774,0 0,0"
             style="fill:#231f20;fill-opacity:1;fill-rule:nonzero;stroke:none"
             id="path70" />
        </g>
        <path
           d="m 310.231,443.826 h 13.566 v 3.146 h -13.566 z m 14.567,-1 h -15.566 v 5.146 h 15.566 z"
           style="fill:#231f20;fill-opacity:1;fill-rule:nonzero;stroke:none"
           id="path72" />
        <g
           id="g74"
           transform="translate(317.2422,466.6089)">
          <path
             d="M 0,0 C -0.82,0 -2.037,0.379 -3.263,2.135 L -4.856,3.083 -4.347,3.942 -2.499,2.79 C -1.704,1.619 -0.84,1 0,1 H 0.02 C 0.854,1.01 1.692,1.63 2.443,2.793 L 2.506,2.891 4.254,3.941 4.77,3.083 3.219,2.153 C 2.049,0.394 0.844,0.01 0.031,0 0.021,0 0.011,0 0,0"
             style="fill:#231f20;fill-opacity:1;fill-rule:nonzero;stroke:none"
             id="path76" />
        </g>
        <g
           id="g78"
           transform="translate(316.6826,469.5977)">
          <path
             d="m 0,0 c -1.442,0 -2.233,1.14 -2.461,1.795 l 0.945,0.328 C -1.47,1.994 -1.029,0.847 0.264,1.019 1.696,1.217 2.185,2.143 2.205,2.182 L 3.103,1.741 C 3.073,1.682 2.383,0.302 0.4,0.028 0.262,0.009 0.129,0 0,0"
             style="fill:#231f20;fill-opacity:1;fill-rule:nonzero;stroke:none"
             id="path80" />
        </g>
        <g
           id="g82"
           transform="translate(318.4707,474.2534)">
          <path
             d="M 0,0 C -0.014,-0.087 0.005,-0.159 0.026,-0.207 Z M 0.211,-0.211 0.193,-0.293 c 0.044,0.011 0.11,0.039 0.166,0.104 0.027,0.03 0.045,0.06 0.058,0.088 z m -0.447,-0.632 -0.163,0.3 c -0.076,0.136 -0.297,0.609 -0.024,0.976 0.101,0.133 0.338,0.344 0.824,0.239 L 0.574,0.599 C 1.02,0.3 1.02,-0.029 0.979,-0.199 0.872,-0.653 0.331,-0.771 0.103,-0.8 Z"
             style="fill:#231f20;fill-opacity:1;fill-rule:nonzero;stroke:none"
             id="path84" />
        </g>
        <g
           id="g86"
           transform="translate(315.5547,474.5059)">
          <path
             d="M 0,0 C -0.014,-0.087 0.005,-0.159 0.026,-0.207 Z M 0.211,-0.211 0.193,-0.293 c 0.044,0.011 0.11,0.039 0.166,0.104 0.027,0.03 0.045,0.06 0.058,0.088 z m -0.447,-0.632 -0.163,0.3 c -0.076,0.136 -0.297,0.609 -0.024,0.976 0.101,0.133 0.34,0.344 0.824,0.239 L 0.574,0.599 C 1.02,0.3 1.02,-0.029 0.979,-0.199 0.872,-0.653 0.331,-0.771 0.103,-0.8 Z"
             style="fill:#231f20;fill-opacity:1;fill-rule:nonzero;stroke:none"
             id="path88" />
        </g>
        <g
           id="g90"
           transform="translate(285.2461,600.4956)">
          <path
             d="M 0,0 -17.976,7.405 -17.595,8.33 -1,1.493 v 6.338 h 1 z"
             style="fill:#231f20;fill-opacity:1;fill-rule:nonzero;stroke:none"
             id="path92" />
        </g>
        <path
           d="m 250.339,556.862 h -1 v 10.064 h 1 z"
           style="fill:#231f20;fill-opacity:1;fill-rule:nonzero;stroke:none"
           id="path94" />
        <path
           d="m 258.234,556.862 h -1 v 10.03 h 1 z"
           style="fill:#231f20;fill-opacity:1;fill-rule:nonzero;stroke:none"
           id="path96" />
        <g
           id="g98"
           transform="translate(208.4023,473.0479)">
          <path
             d="m 0,0 -3.526,0.352 v 38.685 h 1 V 1.257 L -1,1.104 v 37.968 h 1 z"
             style="fill:#231f20;fill-opacity:1;fill-rule:nonzero;stroke:none"
             id="path100" />
        </g>
        <path
           d="m 234.548,486.67 h -1 v 25.45 h 1 z"
           style="fill:#231f20;fill-opacity:1;fill-rule:nonzero;stroke:none"
           id="path102" />
        <g
           id="g104"
           transform="translate(234.5479,433.1001)">
          <path
             d="m 0,0 h -3.52 v 44.19 h 1 V 1 H -1 v 43.19 h 1 z"
             style="fill:#231f20;fill-opacity:1;fill-rule:nonzero;stroke:none"
             id="path106" />
        </g>
        <path
           d="m 232.028,486.67 h -1 v 25.41 h 1 z"
           style="fill:#231f20;fill-opacity:1;fill-rule:nonzero;stroke:none"
           id="path108" />
        <path
           d="m 256.528,486.67 h -1 v 25.45 h 1 z"
           style="fill:#231f20;fill-opacity:1;fill-rule:nonzero;stroke:none"
           id="path110" />
        <g
           id="g112"
           transform="translate(256.5278,433.1001)">
          <path
             d="m 0,0 h -3.53 v 44.19 h 1 V 1 H -1 v 43.19 h 1 z"
             style="fill:#231f20;fill-opacity:1;fill-rule:nonzero;stroke:none"
             id="path114" />
        </g>
        <path
           d="m 253.998,486.67 h -1 v 25.41 h 1 z"
           style="fill:#231f20;fill-opacity:1;fill-rule:nonzero;stroke:none"
           id="path116" />
        <path
           d="m 271.971,467.758 h -1 v 44.327 h 1 z"
           style="fill:#231f20;fill-opacity:1;fill-rule:nonzero;stroke:none"
           id="path118" />
        <path
           d="m 274.497,473.774 h -1 v 38.346 h 1 z"
           style="fill:#231f20;fill-opacity:1;fill-rule:nonzero;stroke:none"
           id="path120" />
        <path
           d="m 285.771,466.879 h -1 v 45.241 h 1 z"
           style="fill:#231f20;fill-opacity:1;fill-rule:nonzero;stroke:none"
           id="path122" />
        <path
           d="m 283.245,473 h -1 v 39.085 h 1 z"
           style="fill:#231f20;fill-opacity:1;fill-rule:nonzero;stroke:none"
           id="path124" />
        <g
           id="g126"
           transform="translate(289.293,385.9844)">
          <path
             d="M 0,0 H -1 V 55.979 H -20.617 V 37.593 h -1 V 56.979 H 0 Z"
             style="fill:#231f20;fill-opacity:1;fill-rule:nonzero;stroke:none"
             id="path128" />
        </g>
        <path
           d="m 234.048,486.17 h -2.52 v 1 h 2.52 z"
           style="fill:#231f20;fill-opacity:1;fill-rule:nonzero;stroke:none"
           id="path130" />
        <path
           d="m 234.048,476.79 h -2.52 v 1 h 2.52 z"
           style="fill:#231f20;fill-opacity:1;fill-rule:nonzero;stroke:none"
           id="path132" />
        <path
           d="m 256.028,486.17 h -2.53 v 1 h 2.53 z"
           style="fill:#231f20;fill-opacity:1;fill-rule:nonzero;stroke:none"
           id="path134" />
        <path
           d="m 256.028,476.79 h -2.53 v 1 h 2.53 z"
           style="fill:#231f20;fill-opacity:1;fill-rule:nonzero;stroke:none"
           id="path136" />
        <path
           d="m 253.498,486.17 h -19.45 v 1 h 19.45 z"
           style="fill:#231f20;fill-opacity:1;fill-rule:nonzero;stroke:none"
           id="path138" />
        <path
           d="m 271.468,486.17 h -15.44 v 1 h 15.44 z"
           style="fill:#231f20;fill-opacity:1;fill-rule:nonzero;stroke:none"
           id="path140" />
        <path
           d="m 231.528,486.17 h -23.63 v 1 h 23.63 z"
           style="fill:#231f20;fill-opacity:1;fill-rule:nonzero;stroke:none"
           id="path142" />
        <path
           d="m 231.528,476.79 h -23.63 v 1 h 23.63 z"
           style="fill:#231f20;fill-opacity:1;fill-rule:nonzero;stroke:none"
           id="path144" />
        <path
           d="m 253.498,476.79 h -19.45 v 1 h 19.45 z"
           style="fill:#231f20;fill-opacity:1;fill-rule:nonzero;stroke:none"
           id="path146" />
        <path
           d="m 271.468,476.79 h -15.44 v 1 h 15.44 z"
           style="fill:#231f20;fill-opacity:1;fill-rule:nonzero;stroke:none"
           id="path148" />
        <g
           id="g150"
           transform="translate(257.8066,612.1528)">
          <path
             d="m 0,0 h 79.662 c 1.196,0.359 2.055,0.755 2.179,2.062 C 81.113,1.119 80.272,0.664 80.222,0.637 L 79.983,0.51 79.746,0.641 c -0.305,0.167 -30.55,16.81 -37.692,21.948 l -0.32,0.229 0.149,0.365 c 1.62,3.993 -0.104,6.285 -1.244,7.802 l -0.214,0.285 0.04,0.215 c 0.169,0.918 -0.278,1.894 -0.634,2.493 -0.355,-0.599 -0.803,-1.575 -0.633,-2.492 l 0.04,-0.216 -0.213,-0.284 c -1.141,-1.517 -2.866,-3.81 -1.245,-7.803 l 0.148,-0.365 -0.319,-0.229 C 30.467,17.451 0.22,0.808 -0.084,0.641 L -0.321,0.51 -0.56,0.637 C -0.61,0.664 -1.451,1.119 -2.178,2.062 -2.054,0.755 -1.196,0.359 0,0 m 79.808,-1 -80.023,0.021 c -1.733,0.513 -3.522,1.354 -2.811,4.873 l 0.384,1.897 0.583,-1.846 c 0.392,-1.24 1.324,-1.995 1.75,-2.287 2.925,1.613 29.773,16.441 37.019,21.519 -1.56,4.241 0.302,6.796 1.472,8.351 -0.204,1.832 1.199,3.579 1.261,3.656 l 0.388,0.476 0.388,-0.476 c 0.062,-0.077 1.466,-1.824 1.261,-3.656 1.17,-1.555 3.033,-4.11 1.472,-8.351 7.246,-5.078 34.094,-19.906 37.02,-21.519 0.425,0.292 1.358,1.047 1.75,2.287 l 0.583,1.846 0.383,-1.897 c 0.711,-3.519 -1.078,-4.36 -2.811,-4.873 z"
             style="fill:#231f20;fill-opacity:1;fill-rule:nonzero;stroke:none"
             id="path152" />
        </g>
        <g
           id="g154"
           transform="translate(371.7822,569.7178)">
          <path
             d="m 0,0 -148.359,0.021 c -1.733,0.513 -3.522,1.354 -2.811,4.873 l 0.384,1.897 0.583,-1.846 c 0.398,-1.258 1.352,-2.018 1.769,-2.3 3.681,1.693 47.33,21.801 61.159,29.319 l 0.478,-0.879 C -101.196,23.258 -147.792,1.84 -148.261,1.624 l -0.224,-0.103 -0.219,0.116 c -0.05,0.027 -0.891,0.482 -1.618,1.425 0.124,-1.307 0.982,-1.703 2.178,-2.062 L -0.146,1 C 1.051,1.359 1.909,1.755 2.033,3.061 1.306,2.119 0.466,1.664 0.415,1.637 L 0.196,1.521 -0.028,1.624 C -0.497,1.84 -47.093,23.258 -61.492,31.085 l 0.478,0.879 C -47.185,24.446 -3.535,4.338 0.146,2.645 c 0.416,0.282 1.37,1.041 1.768,2.3 L 2.497,6.791 2.881,4.894 C 3.592,1.375 1.803,0.534 0.069,0.021 Z"
             style="fill:#231f20;fill-opacity:1;fill-rule:nonzero;stroke:none"
             id="path156" />
        </g>
        <g
           id="g158"
           transform="translate(257.6177,607.8271)">
          <path
             d="M 0,0 C -0.209,0 -0.409,0.084 -0.566,0.242 -1.22,0.899 -1.083,3.14 -0.993,4.072 L 0.002,3.977 C -0.121,2.694 -0.07,1.37 0.107,1.005 c 0.374,0.011 1.961,0.027 9.736,0.031 14.684,0.006 45.67,0.006 60.355,0 7.775,-0.004 9.362,-0.02 9.735,-0.031 0.177,0.365 0.228,1.689 0.105,2.972 l 0.996,0.095 C 81.123,3.14 81.26,0.899 80.606,0.242 80.432,0.067 80.221,-0.017 79.965,0.003 79.79,0.016 77.949,0.032 70.198,0.036 55.511,0.042 24.527,0.042 9.843,0.036 2.092,0.032 0.251,0.016 0.072,0.003 0.048,0.001 0.024,0 0,0"
             style="fill:#231f20;fill-opacity:1;fill-rule:nonzero;stroke:none"
             id="path160" />
        </g>
        <g
           id="g162"
           transform="translate(223.2324,566.3921)">
          <path
             d="M 0,0 C -0.214,0 -0.417,0.086 -0.576,0.247 -1.218,0.896 -1.081,3.001 -0.992,3.876 L 0.003,3.775 C -0.117,2.584 -0.07,1.349 0.101,1.005 0.458,1.016 2.01,1.032 9.844,1.036 c 14.684,0.006 114.439,0.006 129.123,0 7.834,-0.004 9.386,-0.02 9.743,-0.031 0.171,0.344 0.218,1.579 0.098,2.77 l 0.994,0.101 c 0.089,-0.875 0.226,-2.98 -0.415,-3.629 -0.177,-0.179 -0.409,-0.266 -0.652,-0.244 -0.176,0.013 -2.017,0.029 -9.768,0.033 C 124.281,0.042 24.529,0.042 9.844,0.036 2.093,0.032 0.252,0.016 0.073,0.003 0.048,0.001 0.024,0 0,0"
             style="fill:#231f20;fill-opacity:1;fill-rule:nonzero;stroke:none"
             id="path164" />
        </g>
        <g
           id="g166"
           transform="translate(413.3398,514.9106)">
          <path
             d="m 0,0 -231.474,0.021 c -1.733,0.513 -3.522,1.355 -2.812,4.873 l 0.384,1.898 0.583,-1.847 c 0.417,-1.317 1.424,-2.077 1.812,-2.33 3.694,0.952 55.858,14.415 75.758,20.343 L -155.463,22 C -176.013,15.878 -230.908,1.736 -231.46,1.594 l -0.188,-0.048 -0.171,0.091 c -0.051,0.027 -0.891,0.482 -1.619,1.424 0.125,-1.306 0.983,-1.702 2.179,-2.061 H -0.146 C 1.051,1.359 1.908,1.755 2.033,3.061 1.306,2.119 0.466,1.664 0.415,1.637 L 0.244,1.546 0.056,1.594 C -0.496,1.736 -55.391,15.878 -75.94,22 l 0.285,0.958 C -55.758,17.031 -3.604,3.571 0.101,2.615 0.49,2.871 1.502,3.639 1.915,4.945 L 2.499,6.792 2.882,4.894 C 3.592,1.376 1.803,0.534 0.069,0.021 Z"
             style="fill:#231f20;fill-opacity:1;fill-rule:nonzero;stroke:none"
             id="path168" />
        </g>
        <g
           id="g170"
           transform="translate(181.6748,511.585)">
          <path
             d="M 0,0 C -0.214,0 -0.417,0.086 -0.577,0.247 -1.218,0.896 -1.081,3.001 -0.992,3.876 L 0.003,3.775 C -0.118,2.583 -0.071,1.349 0.1,1.005 c 0.358,0.011 1.909,0.027 9.744,0.031 14.876,0.006 197.362,0.006 212.238,0 7.833,-0.004 9.386,-0.02 9.743,-0.031 0.171,0.344 0.219,1.578 0.099,2.77 l 0.994,0.101 c 0.089,-0.875 0.226,-2.98 -0.416,-3.629 -0.178,-0.179 -0.411,-0.266 -0.651,-0.244 -0.177,0.013 -2.018,0.029 -9.769,0.033 C 207.204,0.042 24.721,0.042 9.844,0.036 2.093,0.032 0.252,0.016 0.073,0.003 0.048,0.001 0.024,0 0,0"
             style="fill:#231f20;fill-opacity:1;fill-rule:nonzero;stroke:none"
             id="path172" />
        </g>
        <g
           id="g174"
           transform="translate(310.0293,600.4956)">
          <path
             d="M 0,0 V 7.831 H 1 V 1.493 L 17.596,8.33 17.977,7.405 Z"
             style="fill:#231f20;fill-opacity:1;fill-rule:nonzero;stroke:none"
             id="path176" />
        </g>
        <path
           d="m 310.529,600.742 h -25.783 v 1 h 25.783 z"
           style="fill:#231f20;fill-opacity:1;fill-rule:nonzero;stroke:none"
           id="path178" />
        <g
           id="g180"
           transform="translate(248.2402,549.3843)">
          <path
             d="m 0,0 h 98.795 l 5.882,6.978 H -5.882 Z M 99.26,-1 H -0.465 l -7.567,8.978 h 114.859 z"
             style="fill:#231f20;fill-opacity:1;fill-rule:nonzero;stroke:none"
             id="path182" />
        </g>
        <path
           d="m 345.937,556.862 h -1 v 10.064 h 1 z"
           style="fill:#231f20;fill-opacity:1;fill-rule:nonzero;stroke:none"
           id="path184" />
        <path
           d="m 338.042,556.862 h -1 v 10.03 h 1 z"
           style="fill:#231f20;fill-opacity:1;fill-rule:nonzero;stroke:none"
           id="path186" />
        <g
           id="g188"
           transform="translate(338.042,536.8896)">
          <path
             d="m 0,0 h -80.808 v 11.995 h 1 V 1 H -1 v 10.995 h 1 z"
             style="fill:#231f20;fill-opacity:1;fill-rule:nonzero;stroke:none"
             id="path190" />
        </g>
        <path
           d="m 337.542,542.637 h -79.808 v 1 h 79.808 z"
           style="fill:#231f20;fill-opacity:1;fill-rule:nonzero;stroke:none"
           id="path192" />
        <g
           id="g194"
           transform="translate(386.873,473.0479)">
          <path
             d="M 0,0 V 39.072 H 1 V 1.104 l 1.526,0.153 v 37.78 h 1 V 0.352 Z"
             style="fill:#231f20;fill-opacity:1;fill-rule:nonzero;stroke:none"
             id="path196" />
        </g>
        <path
           d="m 361.728,486.67 h -1 v 25.45 h 1 z"
           style="fill:#231f20;fill-opacity:1;fill-rule:nonzero;stroke:none"
           id="path198" />
        <g
           id="g200"
           transform="translate(364.248,433.1001)">
          <path
             d="m 0,0 h -3.521 v 44.19 h 1 V 1 H -1 v 43.19 h 1 z"
             style="fill:#231f20;fill-opacity:1;fill-rule:nonzero;stroke:none"
             id="path202" />
        </g>
        <path
           d="m 364.248,486.67 h -1 v 25.41 h 1 z"
           style="fill:#231f20;fill-opacity:1;fill-rule:nonzero;stroke:none"
           id="path204" />
        <path
           d="m 339.748,486.67 h -1 v 25.45 h 1 z"
           style="fill:#231f20;fill-opacity:1;fill-rule:nonzero;stroke:none"
           id="path206" />
        <g
           id="g208"
           transform="translate(342.2783,433.1001)">
          <path
             d="m 0,0 h -3.53 v 44.19 h 1 V 1 H -1 v 43.19 h 1 z"
             style="fill:#231f20;fill-opacity:1;fill-rule:nonzero;stroke:none"
             id="path210" />
        </g>
        <path
           d="m 342.278,486.67 h -1 v 25.41 h 1 z"
           style="fill:#231f20;fill-opacity:1;fill-rule:nonzero;stroke:none"
           id="path212" />
        <path
           d="m 324.305,467.758 h -1 v 44.327 h 1 z"
           style="fill:#231f20;fill-opacity:1;fill-rule:nonzero;stroke:none"
           id="path214" />
        <path
           d="m 321.778,473.774 h -1 v 38.346 h 1 z"
           style="fill:#231f20;fill-opacity:1;fill-rule:nonzero;stroke:none"
           id="path216" />
        <path
           d="m 310.505,466.879 h -1 v 45.241 h 1 z"
           style="fill:#231f20;fill-opacity:1;fill-rule:nonzero;stroke:none"
           id="path218" />
        <path
           d="m 313.031,473 h -1 v 39.085 h 1 z"
           style="fill:#231f20;fill-opacity:1;fill-rule:nonzero;stroke:none"
           id="path220" />
        <g
           id="g222"
           transform="translate(306.9824,385.9844)">
          <path
             d="M 0,0 H -1 V 56.979 H 20.617 V 37.593 h -1 V 55.979 H 0 Z"
             style="fill:#231f20;fill-opacity:1;fill-rule:nonzero;stroke:none"
             id="path224" />
        </g>
        <path
           d="m 306.482,435.142 h -17.689 v 1 h 17.689 z"
           style="fill:#231f20;fill-opacity:1;fill-rule:nonzero;stroke:none"
           id="path226" />
        <path
           d="m 306.482,428.558 h -17.689 v 1 h 17.689 z"
           style="fill:#231f20;fill-opacity:1;fill-rule:nonzero;stroke:none"
           id="path228" />
        <path
           d="m 305.931,421.974 h -16.586 v 1 h 16.586 z"
           style="fill:#231f20;fill-opacity:1;fill-rule:nonzero;stroke:none"
           id="path230" />
        <path
           d="m 305.931,415.39 h -16.586 v 1 h 16.586 z"
           style="fill:#231f20;fill-opacity:1;fill-rule:nonzero;stroke:none"
           id="path232" />
        <path
           d="m 305.931,408.806 h -16.586 v 1 h 16.586 z"
           style="fill:#231f20;fill-opacity:1;fill-rule:nonzero;stroke:none"
           id="path234" />
        <path
           d="m 363.748,486.17 h -2.521 v 1 h 2.521 z"
           style="fill:#231f20;fill-opacity:1;fill-rule:nonzero;stroke:none"
           id="path236" />
        <path
           d="m 363.748,476.79 h -2.521 v 1 h 2.521 z"
           style="fill:#231f20;fill-opacity:1;fill-rule:nonzero;stroke:none"
           id="path238" />
        <path
           d="m 341.778,486.17 h -2.53 v 1 h 2.53 z"
           style="fill:#231f20;fill-opacity:1;fill-rule:nonzero;stroke:none"
           id="path240" />
        <path
           d="m 341.778,476.79 h -2.53 v 1 h 2.53 z"
           style="fill:#231f20;fill-opacity:1;fill-rule:nonzero;stroke:none"
           id="path242" />
        <path
           d="m 361.228,486.17 h -19.449 v 1 h 19.449 z"
           style="fill:#231f20;fill-opacity:1;fill-rule:nonzero;stroke:none"
           id="path244" />
        <path
           d="m 339.248,486.17 h -15.44 v 1 h 15.44 z"
           style="fill:#231f20;fill-opacity:1;fill-rule:nonzero;stroke:none"
           id="path246" />
        <path
           d="m 387.378,486.17 h -23.63 v 1 h 23.63 z"
           style="fill:#231f20;fill-opacity:1;fill-rule:nonzero;stroke:none"
           id="path248" />
        <path
           d="m 387.378,476.79 h -23.63 v 1 h 23.63 z"
           style="fill:#231f20;fill-opacity:1;fill-rule:nonzero;stroke:none"
           id="path250" />
        <path
           d="m 361.228,476.79 h -19.449 v 1 h 19.449 z"
           style="fill:#231f20;fill-opacity:1;fill-rule:nonzero;stroke:none"
           id="path252" />
        <path
           d="m 339.248,476.79 h -15.44 v 1 h 15.44 z"
           style="fill:#231f20;fill-opacity:1;fill-rule:nonzero;stroke:none"
           id="path254" />
        <path
           d="m 300.152,634.647 h -5.029 v 1 h 5.029 z"
           style="fill:#231f20;fill-opacity:1;fill-rule:nonzero;stroke:none"
           id="path256" />
        <g
           id="g258"
           transform="translate(152.6948,508.7896)">
          <path
             d="m 0,0 c -3.388,-4.055 -14.094,-19.028 40.832,-56.763 62.427,-42.888 95.978,-60.067 107.486,-74.951 11.092,-25.73 -11.238,-13.036 38.015,-56.924 17.481,-15.311 86.938,-67.459 105.295,-55.581 0.668,0.431 1.168,1.21 1.304,1.995 1.86,10.741 -150.377,119.563 -229.817,212.127 C 20.092,16.605 3.932,4.705 0,0"
             style="fill:#ffffff;fill-opacity:1;fill-rule:nonzero;stroke:none"
             id="path260" />
        </g>
        <g
           id="g262"
           transform="translate(152.6948,508.7896)">
          <path
             d="m 0,0 c -3.388,-4.055 -14.094,-19.028 40.832,-56.763 62.427,-42.888 95.978,-60.067 107.486,-74.951 11.092,-25.73 -11.238,-13.036 38.015,-56.924 17.481,-15.311 86.938,-67.459 105.295,-55.581 0.668,0.431 1.168,1.21 1.304,1.995 1.86,10.741 -150.377,119.563 -229.817,212.127 C 20.092,16.605 3.932,4.705 0,0 Z"
             style="fill:none;stroke:#231f20;stroke-width:1;stroke-linecap:butt;stroke-linejoin:miter;stroke-miterlimit:10;stroke-dasharray:none;stroke-opacity:1"
             id="path264" />
        </g>
        <g
           id="g266"
           transform="translate(445.3799,511.1201)">
          <path
             d="m 0,0 c -3.558,4.167 -14.811,14.468 -62.395,-29.955 -55.846,-52.138 -103.4,-107.87 -119.933,-116.466 -27.085,-6.237 -33.465,-5.821 -45.079,-12.12 -7.267,-4.727 -18.809,-16.789 -31.05,-28.273 -17.99,-16.878 -36.359,-33.861 -35.611,-35.574 0,0 0.465,-1.115 1.275,-0.568 7.888,5.331 48.312,40.541 54.549,43.82 0.299,0.157 0.956,-0.286 1.631,-0.923 0.533,-0.502 1.078,-1.124 1.466,-1.666 0.251,-0.351 0.217,-0.826 -0.098,-1.121 -16.935,-15.866 -52.246,-47.456 -51.69,-48.046 0.547,-0.577 0.493,-0.497 1.101,-1.008 0.739,-0.623 55.739,43.784 56.51,43.232 0.008,-0.007 0.016,-0.013 0.025,-0.019 1.566,-1.124 2.828,-2.628 3.664,-4.366 0.004,-0.009 0.009,-0.018 0.013,-0.027 0.41,-0.855 -52.874,-47.309 -52.389,-48.145 0.4,-0.687 0.329,-0.621 0.803,-1.258 0.484,-0.651 37.726,28.638 56.291,42.56 0.346,0.26 0.819,0.211 1.122,-0.098 0.466,-0.476 0.984,-1.12 1.387,-1.732 0.509,-0.775 0.831,-1.5 0.625,-1.767 -4.313,-5.573 -46.008,-39.269 -52.627,-46.111 -0.679,-0.702 0.338,-1.354 0.338,-1.354 1.557,-1.035 21.471,14.106 41.217,28.893 13.435,10.061 27.319,19.332 33.236,25.668 8.219,10.344 8.917,16.699 19.764,42.29 11.335,14.788 74.479,51.943 135.522,97.887 52.011,39.147 43.82,52.018 40.335,56.245"
             style="fill:#ffffff;fill-opacity:1;fill-rule:nonzero;stroke:#231f20;stroke-width:1;stroke-linecap:butt;stroke-linejoin:miter;stroke-miterlimit:10;stroke-dasharray:none;stroke-opacity:1"
             id="path268" />
        </g>
        <g
           id="g270"
           transform="translate(144.2534,593.583)">
          <path
             d="m 0,0 -33.584,4.677 22.298,-18.373 -6.068,-7.365 -33.927,27.956 7.421,9.005 30.905,-4.517 -20.624,16.994 6.107,7.411 L 6.455,7.833 Z"
             style="fill:#231f20;fill-opacity:1;fill-rule:nonzero;stroke:none"
             id="path272" />
        </g>
        <g
           id="g274"
           transform="translate(155.3369,605.4014)">
          <path
             d="m 0,0 -28.388,33.57 20.842,17.621 5.965,-7.055 -13.507,-11.42 5.405,-6.392 12.254,10.361 5.566,-6.581 -12.254,-10.361 5.445,-6.44 13.554,11.46 6.006,-7.102 z"
             style="fill:#231f20;fill-opacity:1;fill-rule:nonzero;stroke:none"
             id="path276" />
        </g>
        <g
           id="g278"
           transform="translate(181.0054,654.7046)">
          <path
             d="m 0,0 c 3.125,1.879 4.143,5.023 2.386,7.946 -1.822,3.028 -5.044,3.551 -8.169,1.671 l -4.793,-2.882 5.784,-9.617 z m -0.499,-10.139 8.147,-13.548 -8.23,-4.95 -22.654,37.67 13.909,8.364 c 7.501,4.511 15.694,2.565 19.911,-4.449 4.282,-7.119 2.097,-15.161 -5.405,-19.673 z"
             style="fill:#231f20;fill-opacity:1;fill-rule:nonzero;stroke:none"
             id="path280" />
        </g>
        <g
           id="g282"
           transform="translate(211.5269,663.0513)">
          <path
             d="M 0,0 9.729,3.827 -0.638,16.07 Z M 15.825,-3.369 0.326,-9.465 0.708,-18.907 -8.681,-22.6 -9.666,24.245 0.686,28.316 31.706,-6.715 21.977,-10.542 Z"
             style="fill:#231f20;fill-opacity:1;fill-rule:nonzero;stroke:none"
             id="path284" />
        </g>
        <g
           id="g286"
           transform="translate(245.4736,656.1392)">
          <path
             d="m 0,0 -8.579,43.112 9.419,1.873 6.752,-33.93 18.243,3.628 1.827,-9.182 z"
             style="fill:#231f20;fill-opacity:1;fill-rule:nonzero;stroke:none"
             id="path288" />
        </g>
        <g
           id="g290"
           transform="translate(276.6274,661.4751)">
          <path
             d="M 0,0 -3.451,43.826 6.244,44.587 9.695,0.762 Z"
             style="fill:#231f20;fill-opacity:1;fill-rule:nonzero;stroke:none"
             id="path292" />
        </g>
        <g
           id="g294"
           transform="translate(293.0063,662.8145)">
          <path
             d="M 0,0 1.666,43.923 11.264,43.559 9.953,8.991 28.541,8.286 28.186,-1.069 Z"
             style="fill:#231f20;fill-opacity:1;fill-rule:nonzero;stroke:none"
             id="path296" />
        </g>
        <g
           id="g298"
           transform="translate(339.8867,676.3779)">
          <path
             d="M 0,0 10.212,-2.233 8.41,13.708 Z m 11.273,-11.604 -16.268,3.559 -4.935,-8.059 -9.856,2.155 25.243,39.472 10.865,-2.377 6.283,-46.366 -10.211,2.233 z"
             style="fill:#231f20;fill-opacity:1;fill-rule:nonzero;stroke:none"
             id="path300" />
        </g>
        <g
           id="g302"
           transform="translate(364.4639,651.3276)">
          <path
             d="M 0,0 15.395,41.175 24.504,37.77 9.109,-3.406 Z"
             style="fill:#231f20;fill-opacity:1;fill-rule:nonzero;stroke:none"
             id="path304" />
        </g>
        <g
           id="g306"
           transform="translate(403.6982,632.9775)">
          <path
             d="M 0,0 -1.571,33.869 -15.536,8.577 -23.891,13.188 -2.643,51.67 7.573,46.03 8.81,14.824 21.727,38.217 30.133,33.576 8.886,-4.905 Z"
             style="fill:#231f20;fill-opacity:1;fill-rule:nonzero;stroke:none"
             id="path308" />
        </g>
        <g
           id="g310"
           transform="translate(417.2891,624.2603)">
          <path
             d="M 0,0 27.868,34.002 48.978,16.703 43.12,9.558 29.439,20.769 24.134,14.295 36.545,4.124 31.081,-2.543 18.67,7.628 13.324,1.106 l 13.728,-11.25 -5.897,-7.194 z"
             style="fill:#231f20;fill-opacity:1;fill-rule:nonzero;stroke:none"
             id="path312" />
        </g>
        <g
           id="g314"
           transform="translate(459.9551,582.9165)">
          <path
             d="m 0,0 10.519,32.231 -22.015,-18.708 -6.181,7.27 33.494,28.464 7.559,-8.892 L 13.487,10.744 33.848,28.047 40.068,20.73 6.574,-7.734 Z"
             style="fill:#231f20;fill-opacity:1;fill-rule:nonzero;stroke:none"
             id="path316" />
        </g>
      </g>
    </g>
    <text
       xml:space="preserve"
       transform="matrix(1,0,0,-1,174.8696,218.6758)"
       style="font-variant:normal;font-weight:900;font-stretch:normal;font-size:43.6667px;font-family:'Circular Spotify Head Black';-inkscape-font-specification:CircularSpotifyHead-Black;writing-mode:lr-tb;fill:#231f20;fill-opacity:1;fill-rule:nonzero;stroke:none"
       id="text320"><tspan
         x="0 26.811354 54.714375 84.40773 97.071075 129.64644 155.67178 190.91081 214.5345"
         y="0"
         sodipodi:role="line"
         id="tspan318">RAVINTOLA</tspan></text>
    <text
       xml:space="preserve"
       transform="matrix(1,0,0,-1,71.9434,167.668)"
       style="font-variant:normal;font-weight:900;font-stretch:normal;font-size:53.6667px;font-family:'Circular Spotify Head Black';-inkscape-font-specification:CircularSpotifyHead-Black;writing-mode:lr-tb;fill:#231f20;fill-opacity:1;fill-rule:nonzero;stroke:none"
       id="text324"><tspan
         x="0 36.761688 74.060043 106.6894 139.90909 179.08578 217.2428 267.31384 305.47086 345.50623 382.37524 420.53226"
         y="0"
         sodipodi:role="line"
         id="tspan322">KASTHAMANDAP</tspan></text>
  </g>
</svg>
